<svg xmlns="http://www.w3.org/2000/svg" viewBox="0 0 307.73 33.51"><defs><style>.cls-1{fill:#231f20;}.cls-2{fill:none;stroke:#00aeef;stroke-miterlimit:10;}</style></defs><g id="Layer_2" data-name="Layer 2"><g id="Layer_1-2" data-name="Layer 1"><path class="cls-1" d="M10.9,27.94C4.79,27.94,0,23.9,0,17.22S4.85,6.49,10.9,6.49c4.28,0,6.6,1.78,7.14,2.35l-1.5,4a8,8,0,0,0-5.37-2.17c-3.52,0-6.23,2.35-6.23,6.42a6,6,0,0,0,6.23,6.38,7.65,7.65,0,0,0,5.61-2.2l1.62,3.8C17.35,26.19,15.15,27.94,10.9,27.94Z"/><path class="cls-1" d="M33.86,27.58V18.87H25.52v8.71H20.64V6.8h4.88v8h8.34v-8h4.88V27.58Z"/><path class="cls-1" d="M57.81,25.44c-1.45,1.57-3.71,2.47-6.72,2.47s-5.27-.9-6.74-2.47-2-3.61-2-6.54V6.8H47.3V18.9a5.3,5.3,0,0,0,.81,3.47,4.09,4.09,0,0,0,6,0,5.24,5.24,0,0,0,.82-3.47V6.8H59.8V18.9C59.8,21.83,59.29,23.84,57.81,25.44Z"/><path class="cls-1" d="M77.24,27.58l-9.13-14.1s.1,2.5.1,4.7v9.4H63.45V6.8h5.21l8.91,14s-.09-2.35-.09-4.55V6.8h4.76V27.58Z"/><path class="cls-1" d="M95.8,27.91C90.05,27.91,85,24.11,85,17.19s5.06-10.7,10.87-10.7c5.51,0,7.89,2.9,8.56,3.62l-3.23,2.8a6.89,6.89,0,0,0-5.33-2.38c-3.34,0-5.93,2.44-5.93,6.66s2.65,6.65,6,6.65,4.34-1.32,4.34-1.32V19.45H95.92V15.74h9.13v8.62A12.27,12.27,0,0,1,95.8,27.91Z"/><path class="cls-1" d="M149.06,27.58h-1.42l8.62-20.85H157l8.7,20.85h-1.5l-2.68-6.51h-9.79Zm3.16-7.71h8.83l-4.4-10.73Z"/><path class="cls-1" d="M173.16,26.7c3.34,0,5.24-2,5.24-4.39,0-2.2-1.15-3.14-4.43-4.61l-2.56-1.15a5.34,5.34,0,0,1-3.52-4.88c0-2.92,2.44-5.18,6-5.18a6.33,6.33,0,0,1,5.33,2.65l-1,.91a5.18,5.18,0,0,0-4.49-2.32c-2.35,0-4.49,1.5-4.49,3.85s1.36,3.14,3.65,4.19L175.6,17c2.5,1.11,4.15,2.32,4.15,5.21,0,3-2.68,5.72-6.65,5.72a7,7,0,0,1-6.18-3.89l1.21-.72A5.73,5.73,0,0,0,173.16,26.7Z"/><path class="cls-1" d="M188.52,26.7c3.35,0,5.24-2,5.24-4.39,0-2.2-1.14-3.14-4.43-4.61l-2.55-1.15a5.35,5.35,0,0,1-3.53-4.88c0-2.92,2.44-5.18,6-5.18a6.35,6.35,0,0,1,5.33,2.65l-1,.91a5.17,5.17,0,0,0-4.49-2.32c-2.34,0-4.48,1.5-4.48,3.85s1.35,3.14,3.64,4.19L191,17c2.5,1.11,4.16,2.32,4.16,5.21,0,3-2.68,5.72-6.66,5.72a7,7,0,0,1-6.17-3.89l1.2-.72A5.73,5.73,0,0,0,188.52,26.7Z"/><path class="cls-1" d="M218.86,17.22a10.49,10.49,0,1,1-21,0,10.49,10.49,0,1,1,21,0Zm-1.36,0a9.13,9.13,0,1,0-18.25,0,9.13,9.13,0,1,0,18.25,0Z"/><path class="cls-1" d="M232,27.94c-6,0-10.42-4.25-10.42-10.72S226.12,6.49,232,6.49a10.13,10.13,0,0,1,7.56,3.08l-1,.9a8.49,8.49,0,0,0-6.6-2.74c-5.09,0-9,3.94-9,9.49,0,5.27,3.28,9.48,9.06,9.48a8.86,8.86,0,0,0,6.72-2.83l1,.82A10,10,0,0,1,232,27.94Z"/><path class="cls-1" d="M243.23,6.8h1.33V27.58h-1.33Z"/><path class="cls-1" d="M249,27.58h-1.42l8.61-20.85h.76l8.7,20.85h-1.5l-2.68-6.51h-9.79Zm3.16-7.71H261L256.58,9.14Z"/><path class="cls-1" d="M270.19,8H264V6.8h13.79V8h-6.26V27.58h-1.3Z"/><path class="cls-1" d="M280.71,6.8h11.08V8H282v7.92h9.25v1.21H282v9.24h10v1.21H280.71Z"/><path class="cls-1" d="M301.13,26.7c3.35,0,5.25-2,5.25-4.39,0-2.2-1.15-3.14-4.43-4.61l-2.56-1.15a5.35,5.35,0,0,1-3.53-4.88c0-2.92,2.44-5.18,6-5.18a6.33,6.33,0,0,1,5.33,2.65l-1,.91a5.15,5.15,0,0,0-4.48-2.32c-2.35,0-4.49,1.5-4.49,3.85s1.35,3.14,3.64,4.19L303.57,17c2.5,1.11,4.16,2.32,4.16,5.21,0,3-2.68,5.72-6.66,5.72a7,7,0,0,1-6.17-3.89l1.2-.72A5.74,5.74,0,0,0,301.13,26.7Z"/><rect class="cls-2" x="111.37" y="0.5" width="30.87" height="32.51" rx="5.41"/><path class="cls-1" d="M131.9,16.26l.94.21a20.19,20.19,0,0,1-2.15,3.61c.91,1.06,1.83,2.13,2.74,3.17v.1h-1.19l-2.14-2.53c-1.24,1.43-2.66,2.79-5.12,2.79a3.76,3.76,0,0,1-4-3.93c0-2.47,1.93-3.63,4.08-4.85-.74-1-1.78-1.93-1.78-3.52a2.88,2.88,0,0,1,3.12-2.83,2.75,2.75,0,0,1,3,2.79c0,1.57-1.38,2.8-3,3.76,1.23,1.46,2.5,3,3.78,4.41A13.34,13.34,0,0,0,131.9,16.26Zm-2.34,3.93-4-4.72-.76.45c-1.3.76-2.89,1.8-2.89,3.67a3,3,0,0,0,3.31,3.17C126.74,22.76,128.29,21.65,129.56,20.19Zm-3.78-5.82.28-.17c.87-.51,2.36-1.36,2.36-2.91a1.87,1.87,0,0,0-2.06-2,2,2,0,0,0-2.17,2.11C124.19,12.71,125.25,13.75,125.78,14.37Z"/></g></g></svg>